<svg xmlns="http://www.w3.org/2000/svg" viewBox="0 0 200 200.17"><path fill="#f0fff0" d="M0,176.21a7.56,7.56,0,0,1,4.52-6.7c2.5,8.14-3.46,13.36,3.91,20.54,5.06,4.93,14,7.43,19.58,3.51,12.25-8.65,12.32-31.55,10.43-44.25C36,133,33.72,115.59,45.63,102.2A39.47,39.47,0,0,1,65.91,90.43c5.57-1.35,19.75,1.29,22.3-3.06C84.34,82.63,75.66,76,73.81,70.14c-2.35-7.39,4.5-12.21,5.67-19,2.3-13.56-14.61-33.65-2.19-45.92,10.78-10.66,16.89,6.65,25.83,5,9.11-1.66,9.45-17.24,20.24-6.35,5.69,5.74,2.21,10.53,2.78,17,.47,5.24-.8,10.51,4.86,14,7.73,4.76,5.45,0,14-2.45,9.47-2.74,11.15-.08,18.81-5.86,5.69-4.3,5.68-8.93,14.59-6.82,18.33,4.33,9.39,22.81,6,33.43-4.83,15.11,1.33,23.64-18.28,26.35,5.45,11.42,20,2,25.87,19.07.71,2.06,8.07,18.4,8,18.62-.87,2.29-13.86,5.34-17.08,7.73-5.75,4.26-6.29,9.94-14.89,10.48s-11-5.37-17.33-9.08c-11.12-6.47-34.56-3.35-30.4-23.43,4.51,5.46,4.85,11.25,11.59,14.59,8.36,4.14,15.79,3.42,24.2,8.62,21,13,17.78-10.75,36.86-9.79-4.11-15.77-6.09-33.87-26.42-24.75-5.53-19.36-15.24-9.09-22.81,2.31,10.37,3.84,22,6.26,30,14-25.48-5.09-42.41-15-68.49-2.81,7,12.35,12.46,26.15,5,39.63-9.54,17.22-30.91,16.62-47.78,20.15-7.91,1.66-12.57-.68-17.59,6.19-4.48,6.14-5.21,18-11.22,23.62C19.47,208,0,195.31,0,176.21ZM102.38,80c15,7,9.09-15.18,14.51-22,6.34-8,22-5,14-19-2.29-4-7.79-4.46-9.43-9.25-2-5.7,3.67-12.73.94-18.89-7.29-16.45-14.14,6.05-24.64,4.66-8.19-1.08-17.32-21.93-20.49,1-1.2,8.63,3.87,15.78,5.52,23.79s-.51,10.68-2.35,18c-2.37,9.45-3.39,7,1.06,15.62,2.37,4.57,14,10.74,8.47,17.19-4,4.71-18.29,1.47-24,3-7.4,2-14.69,6.28-18.56,13.13,12.3-6.29,30.88-3,38.53,9.15C72.38,114,39.06,96.51,40.29,127.12c21.49-13.45,51,4.06,52.17,28.43,29-18.71-2.59-46.9-20.07-57,22.21-7.88,35.34,29.6,34.23,44.4,7-14.11,1.21-27.65-7.37-39.43l19.09-8c-13.07-5.88-11.72,1.36-22.45,5.94,1.4-6.25,6.53-10.81,10.51-15.69C95.62,82.45,98,97.05,89.35,100.85c-1.22-9.56,10.42-22.51,12.88-32.63,3.08-12.68-2-27.57,2.1-39.34C113.89,41.2,107.43,66.91,102.38,80ZM117,76.17C127.3,67.62,143.88,58.54,157.58,62c-17.23,9.43-34.29,9.24-47.6,26.56,8.42,2.69,20.09,8.61,28.86,3.93,9.3-5,7.59-14.6,19.29-17.25,11.52-2.61,15.49,2.4,20.86-8.56,1.87-3.82,1.93-12.74,3.25-17.4,1.7-6,5.64-8.78,3.9-15.61-3.28-13-10.95-10.41-19-5.49C162,31.31,164.09,33.58,158,36c-4.55,1.81-8.89-2.28-13.8.53-7.68,4.38-7.76,13.8-15,19.17C119,63.23,119.13,62,117,76.17ZM44.77,165.25l19.8-5.8c-2.81-9.32-8.69-8.43-15.22-13.39,9.61-5.17,12.21,6.47,18.52,10C78.35,161.94,81,153.29,74,144.49c-5.15-6.48-17.8-11.6-25.83-8.9C34.59,140.15,42.67,154,44.77,165.25Zm-5.72-30.82c10-2.94,21.5-4.12,30.65,1.72,4.22,2.7,14.37,21.74,16.4,20.79,8.57-4-6-21.07-9.84-23.95C65.71,125.09,47.71,122.24,39.05,134.43Z"/></svg>
